<svg width="145" height="56" viewBox="0 0 145 56" fill="none" xmlns="http://www.w3.org/2000/svg">
  <path d="M13.8827 18.7655C15.8959 18.7655 17.6729 17.7542 18.7335 16.212C19.3038 15.3826 20.1597 14.7036 21.1662 14.7036C22.1728 14.7036 23.0286 15.3825 23.5989 16.2119C23.7445 16.4236 23.9036 16.6253 24.075 16.8158C24.9049 17.7383 25.6483 18.8296 25.6483 20.0704V20.3732C25.6483 21.8757 24.6872 23.1767 23.7075 24.3159C22.8219 25.3456 22.2867 26.6852 22.2867 28.1498C22.2867 29.54 22.7689 30.8176 23.5752 31.8244C24.5935 33.0959 25.6483 34.5045 25.6483 36.1335C25.6483 37.7625 24.5935 39.1712 23.5752 40.4427C22.7689 41.4495 22.2867 42.7271 22.2867 44.1173C22.2867 47.3662 24.9205 50 28.1694 50C31.4184 50 34.0522 47.3662 34.0522 44.1173C34.0522 42.7271 33.5699 41.4495 32.7636 40.4427C31.7453 39.1712 30.6906 37.7625 30.6906 36.1335C30.6906 34.5045 31.7453 33.0959 32.7636 31.8244C33.5699 30.8176 34.0522 29.54 34.0522 28.1498C34.0522 26.5882 33.4437 25.1686 32.4508 24.1154C31.5332 23.142 30.6906 21.9807 30.6906 20.643C30.6906 19.2395 31.6146 18.0364 32.6075 17.0444C32.8631 16.7891 33.0953 16.5103 33.3006 16.2117C33.8708 15.3824 34.7265 14.7036 35.733 14.7036C36.7394 14.7036 37.5952 15.3825 38.1654 16.2118C39.2259 17.7541 41.0029 18.7655 43.0162 18.7655C46.2652 18.7655 48.899 16.1317 48.899 12.8827C48.899 9.63379 46.2652 7 43.0162 7C41.2956 7 39.7476 7.73867 38.6718 8.91618C37.8918 9.7701 36.8896 10.5016 35.733 10.5016C34.5764 10.5016 33.5742 9.7701 32.7941 8.91618C31.7183 7.73867 30.1703 7 28.4497 7C26.7292 7 25.1812 7.7386 24.1055 8.91601C23.3253 9.77001 22.323 10.5016 21.1662 10.5016C20.0095 10.5016 19.0072 9.77001 18.227 8.91601C17.1512 7.7386 15.6032 7 13.8827 7C10.6338 7 8 9.63379 8 12.8827C8 16.1317 10.6338 18.7655 13.8827 18.7655Z" fill="black"/>
  <path d="M47 26C47 28.2091 45.2091 30 43 30C40.7909 30 39 28.2091 39 26C39 23.7909 40.7909 22 43 22C45.2091 22 47 23.7909 47 26Z" fill="black"/>
  <path d="M45 38C45 39.1046 44.1046 40 43 40C41.8954 40 41 39.1046 41 38C41 36.8954 41.8954 36 43 36C44.1046 36 45 36.8954 45 38Z" fill="black"/>
  <path d="M18 26C18 28.2091 16.2091 30 14 30C11.7909 30 10 28.2091 10 26C10 23.7909 11.7909 22 14 22C16.2091 22 18 23.7909 18 26Z" fill="black"/>
  <path d="M16 38C16 39.1046 15.1046 40 14 40C12.8954 40 12 39.1046 12 38C12 36.8954 12.8954 36 14 36C15.1046 36 16 36.8954 16 38Z" fill="black"/>
  <path d="M125.205 31.6214L130.012 31.4567C130.22 34.3225 132.468 35.4754 135.166 35.4754C137.483 35.4754 138.936 34.619 138.936 33.2355C138.936 31.852 137.656 31.5226 135.754 31.1603L131.672 30.4685C128.214 29.8427 125.758 27.998 125.758 24.4735C125.758 20.3889 129.113 17.8525 134.405 17.8525C140.319 17.8525 143.536 20.6524 143.639 25.264L138.797 25.3958C138.659 22.9582 136.895 21.7724 134.37 21.7724C132.157 21.7724 130.911 22.6288 130.911 24.0452C130.911 25.2311 131.88 25.6593 133.471 25.9558L137.552 26.6475C142.014 27.4051 144.055 29.5133 144.055 32.9061C144.055 37.1883 140.146 39.3953 135.166 39.3953C129.355 39.3953 125.205 36.6613 125.205 31.6214Z" fill="black"/>
  <path d="M123.755 39H118.429C117.979 38.44 117.702 37.0895 117.53 34.8825C117.357 32.5438 116.25 31.7861 114.071 31.7861H109.678V39H104.525V18.2478H115.039C120.677 18.2478 123.444 20.7512 123.444 24.737C123.444 27.8004 121.403 29.7109 118.74 30.0403C121.057 30.4685 122.372 31.7532 122.614 34.1908C122.925 37.2542 123.029 38.2424 123.755 39ZM109.678 27.9322H114.209C116.942 27.9322 118.29 27.1745 118.29 25.1323C118.29 23.2876 116.942 22.2665 114.209 22.2665H109.678V27.9322Z" fill="black"/>
  <path d="M88.0722 18.2478H93.9174L102.703 39H97.0994L95.2318 34.5202H86.4467L84.6135 39H79.3563L88.0722 18.2478ZM90.77 23.9464L87.9685 30.765H93.7099L90.9084 23.9464H90.77Z" fill="black"/>
  <path d="M73.6273 39H68.4047V22.3653H60.8301V18.2478H81.3056V22.3653H73.6273V39Z" fill="black"/>
</svg>
